<?xml version="1.0" encoding="UTF-8" standalone="no"?>
<!DOCTYPE svg PUBLIC "-//W3C//DTD SVG 1.1//EN" "http://www.w3.org/Graphics/SVG/1.1/DTD/svg11.dtd">
<svg width="100%" height="100%" viewBox="0 0 543 524" version="1.1" xmlns="http://www.w3.org/2000/svg" xmlns:xlink="http://www.w3.org/1999/xlink" xml:space="preserve" xmlns:serif="http://www.serif.com/" style="fill-rule:evenodd;clip-rule:evenodd;stroke-linejoin:round;stroke-miterlimit:2;">
    <g transform="matrix(1,0,0,1,-441.005,-1414.2)">
        <ellipse cx="712.192" cy="1675.99" rx="271.186" ry="261.788" style="fill:white;"/>
    </g>
    <g transform="matrix(0.413545,0,0,0.35312,-366.763,-252.365)">
        <path d="M1356.44,1875.32L1458.67,1604.45L1652.49,1665.16L1356.44,1875.32Z" style="fill:rgb(100,116,139);"/>
    </g>
    <g transform="matrix(0.413545,0,0,0.35312,-368.47,-251.134)">
        <path d="M1287.2,1536.43L1359.83,1875.65L1462.78,1601.13L1961.69,1152.16L1287.2,1536.43Z" style="fill:rgb(148,163,184);"/>
    </g>
    <g transform="matrix(0.413545,0,0,0.35312,-366.763,-252.365)">
        <path d="M1286.95,1544.63L1944.45,1165.47L1458.67,1604.5L1851.69,1747.82C1881.21,1758.86 1920.88,1749.38 1928.68,1717.96C1943.53,1658.15 1976.82,1233.09 1983.93,1140.75C1984.26,1136.61 1982.88,1132.53 1980.23,1129.77C1977.58,1127 1973.96,1125.88 1970.49,1126.73C1868.79,1151.92 1270.2,1301.48 1027.11,1391.1C1016.59,1394.98 1009.6,1405 1009.57,1416.21C1009.54,1427.42 1016.49,1437.46 1027,1441.39L1286.95,1544.63Z" style="fill:rgb(203,213,225);"/>
    </g>
    <g transform="matrix(0.413545,0,0,0.35312,-366.763,-252.365)">
        <path d="M1356.44,1875.32L1458.67,1604.45L1652.49,1665.16L1356.44,1875.32Z" style="fill:rgb(100,116,139);"/>
    </g>
    <g transform="matrix(0.413545,0,0,0.35312,-368.47,-251.134)">
        <path d="M1287.2,1536.43L1359.83,1875.65L1462.78,1601.13L1961.69,1152.16L1287.2,1536.43Z" style="fill:rgb(148,163,184);"/>
    </g>
    <g transform="matrix(0.413545,0,0,0.35312,-366.763,-252.365)">
        <path d="M1286.95,1544.63L1944.45,1165.47L1458.67,1604.5L1851.69,1747.82C1881.21,1758.86 1920.88,1749.38 1928.68,1717.96C1943.53,1658.15 1976.82,1233.09 1983.93,1140.75C1984.26,1136.61 1982.88,1132.53 1980.23,1129.77C1977.58,1127 1973.96,1125.88 1970.49,1126.73C1868.79,1151.92 1270.2,1301.48 1027.11,1391.1C1016.59,1394.98 1009.6,1405 1009.57,1416.21C1009.54,1427.42 1016.49,1437.46 1027,1441.39L1286.95,1544.63Z" style="fill:rgb(203,213,225);"/>
    </g>
</svg>
